<svg width="24" height="24" viewBox="0 0 24 24" fill="none" xmlns="http://www.w3.org/2000/svg">
  <path fill="currentColor" fill-rule="evenodd" clip-rule="evenodd" d="M12.0007 10C10.8962 10 10.0007 10.8954 10.0007 12C10.0007 13.1046 10.8962 14 12.0007 14C13.1053 14 14.0007 13.1046 14.0007 12C14.0007 10.8954 13.1053 10 12.0007 10ZM8.00073 12C8.00073 9.79081 9.79163 8 12.0007 8C14.2099 8 16.0007 9.79081 16.0007 12C16.0007 14.2092 14.2099 16 12.0007 16C9.79163 16 8.00073 14.2092 8.00073 12Z"/>
  <path fill="currentColor" fill-rule="evenodd" clip-rule="evenodd" d="M1.50494 11.7003C2.90636 7.23842 7.07427 4 12.0012 4C16.9281 4 21.096 7.23846 22.4975 11.7003C22.5587 11.8954 22.5587 12.1046 22.4975 12.2997C21.096 16.7616 16.9281 20 12.0012 20C7.07427 20 2.90634 16.7616 1.50493 12.2996C1.44367 12.1046 1.44367 11.8954 1.50494 11.7003ZM3.51301 12C4.74873 15.4966 8.08384 18 12.0012 18C15.9185 18 19.2536 15.4966 20.4894 12C19.2536 8.50344 15.9185 6 12.0012 6C8.08384 6 4.74874 8.50343 3.51301 12Z"/>
</svg>
