<svg width="24" height="24" viewBox="0 0 24 24" fill="none" xmlns="http://www.w3.org/2000/svg">
  <path fill="currentColor" d="M0 18C0 18.272 0.072 18.536 0.216 18.792C0.36 19.048 0.552 19.232 0.792 19.344C1.032 19.472 1.296 19.528 1.584 19.512C1.872 19.496 2.12 19.416 2.328 19.272L11.328 13.272C11.776 12.968 12 12.544 12 12C12 11.456 11.776 11.048 11.328 10.776L2.328 4.77601C2.104 4.61601 1.856 4.52801 1.584 4.51201C1.312 4.49601 1.048 4.55201 0.792 4.68001C0.552 4.80801 0.36 4.99201 0.216 5.23201C0.072 5.47201 0 5.72801 0 6.00001L0 18ZM12 18C12 18.272 12.072 18.536 12.216 18.792C12.36 19.048 12.552 19.232 12.792 19.344C13.032 19.472 13.296 19.528 13.584 19.512C13.872 19.496 14.12 19.416 14.328 19.272L23.328 13.272C23.776 12.968 24 12.544 24 12C24 11.456 23.776 11.048 23.328 10.776L14.328 4.77601C14.104 4.61601 13.856 4.52801 13.584 4.51201C13.312 4.49601 13.048 4.55201 12.792 4.68001C12.552 4.80801 12.36 4.99201 12.216 5.23201C12.072 5.47201 12 5.72801 12 6.00001V18Z"/>
</svg>
