<svg width="24px" height="24px" version="1.1" viewBox="0 0 36 36" xmlns="http://www.w3.org/2000/svg">
  <g>
    <use href="#fs-on-svg-icon-0" class="svg-shadow"></use>
    <path id="fs-on-svg-icon-0" fill="currentColor" d="m 10,16 2,0 0,-4 4,0 0,-2 L 10,10 l 0,6 0,0 z"></path>
  </g>
  <g>
    <use href="#fs-on-svg-icon-1" class="svg-shadow"></use>
    <path id="fs-on-svg-icon-1" fill="currentColor" d="m 20,10 0,2 4,0 0,4 2,0 L 26,10 l -6,0 0,0 z"></path>
  </g>
  <g>
    <use href="#fs-on-svg-icon-2" class="svg-shadow"></use>
    <path id="fs-on-svg-icon-2" fill="currentColor" d="m 24,24 -4,0 0,2 L 26,26 l 0,-6 -2,0 0,4 0,0 z"></path>
  </g>
  <g>
    <use href="#fs-on-svg-icon-3" class="svg-shadow"></use>
    <path id="fs-on-svg-icon-3" fill="currentColor" d="M 12,20 10,20 10,26 l 6,0 0,-2 -4,0 0,-4 0,0 z"></path>
  </g>
</svg>