<svg width="24px" height="24px" version="1.1" viewBox="0 0 36 36" xmlns="http://www.w3.org/2000/svg">
  <g>
    <use href="#fs-off-svg-icon-0" class="svg-shadow"></use>
    <path id="fs-off-svg-icon-0" fill="currentColor" d="m 14,14 -4,0 0,2 6,0 0,-6 -2,0 0,4 0,0 z"></path>
  </g>
  <g>
    <use href="#fs-off-svg-icon-1" class="svg-shadow"></use>
    <path id="fs-off-svg-icon-1" fill="currentColor" d="m 22,14 0,-4 -2,0 0,6 6,0 0,-2 -4,0 0,0 z"></path>
  </g>
  <g>
    <use href="#fs-off-svg-icon-2" class="svg-shadow"></use>
    <path id="fs-off-svg-icon-2" fill="currentColor" d="m 20,26 2,0 0,-4 4,0 0,-2 -6,0 0,6 0,0 z"></path>
  </g>
  <g>
    <use href="#fs-off-svg-icon-3" class="svg-shadow"></use>
    <path id="fs-off-svg-icon-3" fill="currentColor" d="m 10,22 4,0 0,4 2,0 0,-6 -6,0 0,2 0,0 z"></path>
  </g>
</svg>