<svg width="24" height="12" viewBox="0 0 300 150" fill="none" xmlns="http://www.w3.org/2000/svg">
  <path fill="currentColor" fill-rule="evenodd" clip-rule="evenodd" d="M16 21V128H43V21H16Z"/>
  <path fill="currentColor" fill-rule="evenodd" clip-rule="evenodd" d="M102.198 21L95.8409 71.0546L91.9291 43.8625C90.7542 35.0869 89.6806 27.5036 88.6015 21H53V128H77.0621L77.1577 57.3531L87.2356 128H104.353L114.034 55.7754V128H138V21H102.198Z"/>
  <path fill="currentColor" fill-rule="evenodd" clip-rule="evenodd" d="M181.568 128C188.184 128 193.227 127.615 196.487 126.922C199.843 126.23 202.61 124.95 204.779 123.074C207.045 121.304 208.626 118.744 209.514 115.491C210.403 112.239 211 105.83 211 96.2746V58.7382C211 48.5866 210.605 41.7831 209.92 38.3386C209.322 34.8942 207.836 31.7369 205.368 28.985C202.899 26.1185 199.254 24.1555 194.509 22.8667C189.862 21.6925 182.069 21 168.743 21H148V128H181.568ZM181.876 40.3108C182.956 40.8979 183.652 41.8794 183.94 43.2663C184.346 44.6513 184.443 47.7977 184.443 52.6272V94.1098C184.443 101.202 183.94 105.541 183.053 107.121C182.166 108.795 179.698 109.584 175.745 109.584V39.3202C178.714 39.3202 180.778 39.6183 181.876 40.3108Z"/>
  <path fill="currentColor" fill-rule="evenodd" clip-rule="evenodd" d="M220 21V127.62H245.063L246.745 120.851C249.019 123.594 251.495 125.664 254.272 127.035C256.942 128.31 261.004 129 264.176 129C268.627 129 272.398 127.917 275.572 125.568C278.735 123.306 280.815 120.554 281.704 117.419C282.497 114.273 283 109.557 283 103.17V73.235C283 66.8505 282.797 62.6304 282.498 60.6653C282.207 58.7001 281.414 56.639 280.022 54.5778C278.531 52.5149 276.462 50.9428 273.782 49.7637C271.103 48.6896 267.94 48.0955 264.176 48.0955C261.004 48.0955 256.942 48.7856 254.175 49.9556C251.495 51.2398 249.019 53.1959 246.745 55.7569V21H220ZM256.149 101.808C256.149 106.909 255.858 110.151 255.354 111.522C254.871 112.893 252.587 113.583 250.904 113.583C249.318 113.583 248.129 112.893 247.635 111.627C247.036 110.343 246.745 107.304 246.745 102.595V74.405C246.745 69.5927 247.036 66.5535 247.539 65.3744C248.032 64.2043 249.125 63.6085 250.711 63.6085C252.395 63.6085 254.668 64.2044 255.259 65.6714C255.858 67.0425 256.149 69.9948 256.149 74.405V101.808Z"/>
</svg>
