<svg width="10" height="24" viewBox="0 0 10 24" fill="none" xmlns="http://www.w3.org/2000/svg">
  <path fill="currentColor" d="M7.26004 19.3951C7.26004 19.3951 8.64504 18.7781 9.02804 17.5891C9.41004 16.4011 8.64404 15.0911 8.64404 15.0911C8.64404 15.0911 7.25804 15.7091 6.87604 16.8971C6.49404 18.0861 7.26004 19.3951 7.26004 19.3951Z"/>
  <path fill="currentColor" d="M6.583 19.679C6.583 19.679 5.126 20.101 4.067 19.439C3.009 18.777 2.75 17.282 2.75 17.282C2.75 17.282 4.207 16.86 5.265 17.522C6.324 18.184 6.583 19.679 6.583 19.679Z"/>
  <path fill="currentColor" d="M5.793 15.217C5.793 15.217 5.651 13.707 6.499 12.79C7.346 11.874 8.863 11.898 8.863 11.898C8.863 11.898 9.006 13.408 8.158 14.325C7.31 15.242 5.793 15.217 5.793 15.217Z"/>
  <path fill="currentColor" d="M5.54704 6.95305C5.54704 6.95305 7.39504 6.13005 7.90404 4.54605C8.63704 2.26805 7.62404 0.498047 7.62404 0.498047C7.62404 0.498047 5.28004 1.15805 4.53904 3.46305C3.79704 5.76805 5.54704 6.95305 5.54704 6.95305Z"/>
  <path fill="currentColor" d="M4.80606 10.864C4.80606 10.864 2.45306 10.834 1.18006 9.37601C-0.0939437 7.91801 0.194056 5.58301 0.194056 5.58301C0.194056 5.58301 2.54706 5.61201 3.82006 7.07001C5.09406 8.52901 4.80606 10.864 4.80606 10.864Z"/>
  <path fill="currentColor" d="M5.48403 10.822C5.48403 10.822 5.29503 8.80801 6.42603 7.58701C7.55603 6.36601 9.57903 6.39901 9.57903 6.39901C9.57903 6.39901 9.76903 8.41301 8.63703 9.63501C7.50703 10.856 5.48403 10.822 5.48403 10.822Z"/>
  <path fill="currentColor" d="M5.31996 15.3369C5.31996 15.3369 3.33096 15.7029 2.01496 14.6839C0.697955 13.6649 0.553955 11.6479 0.553955 11.6479C0.553955 11.6479 2.54395 11.2819 3.85895 12.3009C5.17595 13.3189 5.31996 15.3369 5.31996 15.3369Z"/>
  <path fill="currentColor" fill-rule="evenodd" clip-rule="evenodd" d="M6.31306 3.16697C6.51806 3.20097 5.80306 7.22697 5.76906 7.43097C5.17906 10.978 5.37505 17.226 9.09905 22.716C9.15382 22.7964 9.17603 22.8946 9.16118 22.9907C9.14633 23.0869 9.09553 23.1738 9.01905 23.234C8.97895 23.2651 8.93291 23.2877 8.88375 23.3005C8.83459 23.3132 8.78335 23.3158 8.73316 23.308C8.68298 23.3002 8.63491 23.2823 8.59191 23.2553C8.5489 23.2283 8.51186 23.1928 8.48305 23.151C4.61005 17.453 4.41606 10.978 5.02506 7.30797C5.05906 7.10297 6.10806 3.13297 6.31306 3.16697Z"/>
</svg>
