<svg width="24px" height="24px" version="1.1" viewBox="0 0 36 36" xmlns="http://www.w3.org/2000/svg">
  <g>
    <use href="#playlist-svg-icon-0" class="svg-shadow"></use>
    <path id="playlist-svg-icon-0" fill="currentColor" fill-rule="evenodd" clip-rule="evenodd" d="M9.15747 12.6C9.15747 11.1958 10.2958 10.0575 11.7 10.0575H24.255C25.6592 10.0575 26.7975 11.1958 26.7975 12.6V14.445C26.7975 15.8492 25.6592 16.9875 24.255 16.9875H11.7C10.2958 16.9875 9.15747 15.8492 9.15747 14.445V12.6ZM11.7 11.6325C11.1656 11.6325 10.7325 12.0657 10.7325 12.6V14.445C10.7325 14.9793 11.1656 15.4125 11.7 15.4125H24.255C24.7893 15.4125 25.2225 14.9793 25.2225 14.445V12.6C25.2225 12.0657 24.7893 11.6325 24.255 11.6325H11.7Z"/>
  </g>
  <g>
    <use href="#playlist-svg-icon-1" class="svg-shadow"></use>
    <path id="playlist-svg-icon-1" fill="currentColor" fill-rule="evenodd" clip-rule="evenodd" d="M9.15747 21.51C9.15747 20.1058 10.2958 18.9675 11.7 18.9675H24.255C25.6592 18.9675 26.7975 20.1058 26.7975 21.51V23.355C26.7975 24.7592 25.6592 25.8975 24.255 25.8975H11.7C10.2958 25.8975 9.15747 24.7592 9.15747 23.355V21.51ZM11.7 20.5425C11.1656 20.5425 10.7325 20.9757 10.7325 21.51V23.355C10.7325 23.8894 11.1656 24.3225 11.7 24.3225H24.255C24.7893 24.3225 25.2225 23.8894 25.2225 23.355V21.51C25.2225 20.9757 24.7893 20.5425 24.255 20.5425H11.7Z"/>
  </g>
</svg>
