<svg width="24" height="24" viewBox="0 0 24 24" fill="none" xmlns="http://www.w3.org/2000/svg">
  <path fill="currentColor" fill-rule="evenodd" clip-rule="evenodd" d="M2.50027 12C2.50027 6.7533 6.75357 2.5 12.0003 2.5C17.247 2.5 21.5003 6.75329 21.5003 12C21.5003 17.2467 17.247 21.5 12.0003 21.5C11.448 21.5 11.0003 21.0523 11.0003 20.5C11.0003 19.9477 11.448 19.5 12.0003 19.5C16.1424 19.5 19.5003 16.1421 19.5003 12C19.5003 7.85787 16.1424 4.5 12.0003 4.5C7.85814 4.5 4.50027 7.85787 4.50027 12C4.50027 12.6624 4.58592 13.304 4.74668 13.9149L5.37911 12.0604C5.55737 11.5377 6.12564 11.2585 6.64836 11.4367C7.17108 11.615 7.45032 12.1833 7.27206 12.706L5.91782 16.677C5.73956 17.1997 5.17137 17.4789 4.64867 17.3007L4.30782 17.1845L4.30772 17.1845L0.677499 15.9465C0.154774 15.7682 -0.124467 15.2 0.0537958 14.6772C0.232059 14.1545 0.800321 13.8753 1.32305 14.0535L2.8538 14.5756C2.62344 13.756 2.50027 12.892 2.50027 12Z"/>
</svg>
