<svg width="24" height="24" viewBox="0 0 24 24" fill="none" xmlns="http://www.w3.org/2000/svg">
  <path fill="currentColor" fill-rule="evenodd" clip-rule="evenodd" d="M5.38448 7.5H7.5C8.05228 7.5 8.5 7.94771 8.5 8.5C8.5 9.05228 8.05228 9.5 7.5 9.5H3C2.44772 9.5 2 9.05228 2 8.5V4C2 3.44772 2.44772 3 3 3C3.55228 3 4 3.44772 4 4V5.9993C5.82361 3.57195 8.72759 2 12 2C17.144 2 21.3797 5.88323 21.9377 10.8788C21.999 11.4277 21.6038 11.9223 21.0549 11.9836C20.506 12.0449 20.0114 11.6497 19.9501 11.1008C19.5039 7.10625 16.114 4 12 4C9.25155 4 6.82539 5.38588 5.38448 7.5ZM11.9472 8.10557C12.4412 8.35256 12.6414 8.95323 12.3944 9.44721L11.618 11H14C14.3466 11 14.6684 11.1795 14.8507 11.4743C15.0329 11.7691 15.0494 12.1372 14.8944 12.4472L13.3944 15.4472C13.1474 15.9412 12.5468 16.1414 12.0528 15.8944C11.5588 15.6474 11.3586 15.0468 11.6056 14.5528L12.382 13H10C9.65342 13 9.33156 12.8205 9.14935 12.5257C8.96714 12.2309 8.95058 11.8628 9.10557 11.5528L10.6056 8.55279C10.8526 8.05881 11.4532 7.85858 11.9472 8.10557ZM2.94506 12.0061C3.494 11.9454 3.98819 12.3412 4.04888 12.8901C4.49092 16.889 7.88284 20 12 20C14.5254 20 16.7787 18.83 18.2456 17H16.5C15.9477 17 15.5 16.5523 15.5 16C15.5 15.4477 15.9477 15 16.5 15H21C21.5523 15 22 15.4477 22 16V20.5C22 21.0523 21.5523 21.5 21 21.5C20.4477 21.5 20 21.0523 20 20.5V18.0008C18.1764 20.4281 15.2724 22 12 22C6.85204 22 2.6138 18.1108 2.06098 13.1099C2.0003 12.5609 2.39612 12.0667 2.94506 12.0061Z"/>
</svg>
