<svg width="24" height="24" viewBox="0 0 24 24" fill="none" xmlns="http://www.w3.org/2000/svg">
  <path fill="currentColor" fill-rule="evenodd" clip-rule="evenodd" d="M12 4.5C7.85787 4.5 4.5 7.85787 4.5 12C4.5 16.1421 7.85787 19.5 12 19.5C12.5523 19.5 13 19.9477 13 20.5C13 21.0523 12.5523 21.5 12 21.5C6.75329 21.5 2.5 17.2467 2.5 12C2.5 6.7533 6.7533 2.5 12 2.5C17.2467 2.5 21.5 6.75329 21.5 12C21.5 12.892 21.3768 13.756 21.1465 14.5756L22.6772 14.0535C23.1999 13.8753 23.7682 14.1545 23.9465 14.6772C24.1247 15.1999 23.8455 15.7682 23.3228 15.9465L19.6926 17.1845L19.6924 17.1845L19.3515 17.3007C18.8288 17.4789 18.2607 17.1996 18.0824 16.677L16.7282 12.706C16.55 12.1832 16.8292 11.615 17.3519 11.4367C17.8747 11.2585 18.4429 11.5377 18.6212 12.0604L19.2536 13.9149C19.4143 13.304 19.5 12.6624 19.5 12C19.5 7.85787 16.1421 4.5 12 4.5Z"/>
</svg>
