<svg width="24" height="24" viewBox="0 0 24 24" fill="none" xmlns="http://www.w3.org/2000/svg">
  <path fill="currentColor" fill-rule="evenodd" clip-rule="evenodd" d="M7.12494 4.85536C11.6687 2.23201 17.4788 3.78882 20.1022 8.3326C22.7255 12.8764 21.1687 18.6865 16.6249 21.3098C12.0812 23.9332 6.27104 22.3764 3.6477 17.8326C3.37156 17.3543 3.53544 16.7427 4.01373 16.4666C4.49202 16.1904 5.10361 16.3543 5.37975 16.8326C7.45081 20.4198 12.0378 21.6489 15.6249 19.5778C19.2121 17.5067 20.4412 12.9198 18.3701 9.3326C16.2991 5.74541 11.7121 4.51635 8.12494 6.58741C7.5513 6.91861 7.03843 7.31361 6.58981 7.75825L8.51204 7.37872C9.05386 7.27174 9.57982 7.62425 9.6868 8.16608C9.79378 8.7079 9.44127 9.23386 8.89944 9.34084L4.78333 10.1535C4.24155 10.2605 3.71562 9.90805 3.60859 9.36628L3.5388 9.013L3.53878 9.0129L2.79581 5.25003C2.68883 4.70821 3.04134 4.18225 3.58316 4.07527C4.12498 3.96828 4.65095 4.32079 4.75793 4.86262L5.07122 6.44931C5.66577 5.84004 6.35246 5.30136 7.12494 4.85536Z"/>
</svg>
