<svg width="24" height="24" viewBox="0 0 24 24" fill="none" xmlns="http://www.w3.org/2000/svg">
  <path fill="currentColor" fill-rule="evenodd" clip-rule="evenodd" d="M5.63 9.3327C3.55893 12.9199 4.788 17.5068 8.37519 19.5779C11.9624 21.6489 16.5493 20.4199 18.6204 16.8327C18.8965 16.3544 19.5081 16.1905 19.9864 16.4667C20.4647 16.7428 20.6286 17.3544 20.3524 17.8327C17.7291 22.3765 11.919 23.9333 7.37519 21.3099C2.83141 18.6866 1.2746 12.8765 3.89795 8.3327C6.52129 3.78893 12.3314 2.2321 16.8752 4.85545C17.6477 5.30145 18.3344 5.84014 18.9289 6.44941L19.2422 4.86271C19.3492 4.32089 19.8751 3.96838 20.417 4.07536C20.9588 4.18234 21.3113 4.7083 21.2043 5.25012L20.4614 9.01297L20.4613 9.01312L20.3915 9.36644C20.2845 9.9082 19.7585 10.2606 19.2168 10.1536L15.1007 9.34092C14.5589 9.23394 14.2064 8.70797 14.3133 8.16615C14.4203 7.62432 14.9463 7.27182 15.4881 7.3788L17.4103 7.75835C16.9617 7.31371 16.4488 6.9187 15.8752 6.58751C12.288 4.51644 7.70106 5.74552 5.63 9.3327Z"/>
</svg>
