<svg xmlns="http://www.w3.org/2000/svg" enable-background="new 0 0 24 24" height="24" viewBox="0 0 24 24" width="24">
  <path fill="currentColor" d="M12 9.5c1.38 0 2.5 1.12 2.5 2.5s-1.12 2.5-2.5 2.5-2.5-1.12-2.5-2.5 1.12-2.5 2.5-2.5m0-1c-1.93 0-3.5 1.57-3.5 3.5s1.57 3.5 3.5 3.5 3.5-1.57 3.5-3.5-1.57-3.5-3.5-3.5zM13.22 3l.55 2.2.13.51.5.18c.61.23 1.19.56 1.72.98l.4.32.5-.14 2.17-.62 1.22 2.11-1.63 1.59-.37.36.08.51c.05.32.08.64.08.98s-.03.66-.08.98l-.08.51.37.36 1.63 1.59-1.22 2.11-2.17-.62-.5-.14-.4.32c-.53.43-1.11.76-1.72.98l-.5.18-.13.51-.55 2.24h-2.44l-.55-2.2-.13-.51-.5-.18c-.6-.23-1.18-.56-1.72-.99l-.4-.32-.5.14-2.17.62-1.21-2.12 1.63-1.59.37-.36-.08-.51c-.05-.32-.08-.65-.08-.98s.03-.66.08-.98l.08-.51-.37-.36L3.6 8.56l1.22-2.11 2.17.62.5.14.4-.32c.53-.44 1.11-.77 1.72-.99l.5-.18.13-.51.54-2.21h2.44M14 2h-4l-.74 2.96c-.73.27-1.4.66-2 1.14l-2.92-.83-2 3.46 2.19 2.13c-.06.37-.09.75-.09 1.14s.03.77.09 1.14l-2.19 2.13 2 3.46 2.92-.83c.6.48 1.27.87 2 1.14L10 22h4l.74-2.96c.73-.27 1.4-.66 2-1.14l2.92.83 2-3.46-2.19-2.13c.06-.37.09-.75.09-1.14s-.03-.77-.09-1.14l2.19-2.13-2-3.46-2.92.83c-.6-.48-1.27-.87-2-1.14L14 2z" />
</svg>