<svg width="24" height="24" viewBox="0 0 24 24" fill="none" xmlns="http://www.w3.org/2000/svg">
  <path fill="currentColor" fill-rule="evenodd" clip-rule="evenodd" d="M14.6094 6.83959L18.9109 10.4449C19.2457 10.7206 19.4399 11.1314 19.4399 11.5655C19.4399 11.9993 19.2458 12.4104 18.9109 12.6861L14.6093 16.2915C14.1692 16.6655 13.5543 16.7557 13.0252 16.5238L13.0251 16.5238C12.4947 16.2913 12.1441 15.7758 12.1225 15.1972C12.1221 15.1882 12.122 15.1793 12.122 15.1703V13.986C11.6334 13.3826 11.1582 13.1728 10.7335 13.1378C10.2366 13.097 9.66214 13.2833 9.03239 13.6923C7.76479 14.5157 6.57357 16.0462 5.89671 17.1692C5.72979 17.4461 5.39871 17.5778 5.08717 17.4912C4.77563 17.4046 4.56006 17.1209 4.56006 16.7975C4.56006 15.1829 4.95537 12.9017 6.20601 11.1344C6.83927 10.2395 7.69821 9.46873 8.83613 9.00124C9.77139 8.61701 10.8626 8.45096 12.122 8.55994V7.95593C12.122 7.94555 12.1222 7.93518 12.1227 7.92482C12.1476 7.34776 12.4995 6.83551 13.0293 6.60522C13.5577 6.37547 14.1706 6.46655 14.6094 6.83959ZM13.6769 7.93685C13.6565 7.91937 13.628 7.91513 13.6034 7.92582C13.581 7.93556 13.5655 7.95613 13.562 7.97992V9.37961C13.562 9.59205 13.4682 9.79366 13.3056 9.93046C13.1431 10.0673 12.9284 10.1253 12.7191 10.089C11.3179 9.84631 10.23 9.98538 9.38335 10.3332C8.53659 10.6811 7.88293 11.2575 7.38147 11.9662C6.9242 12.6124 6.59912 13.3617 6.37968 14.1215C6.94042 13.5043 7.57445 12.9222 8.24797 12.4847C9.01778 11.9847 9.91306 11.6255 10.8515 11.7027C11.8228 11.7826 12.6994 12.3171 13.4254 13.3208C13.5142 13.4436 13.562 13.5912 13.562 13.7428V15.1496C13.5651 15.174 13.5807 15.1951 13.6033 15.205C13.628 15.2158 13.6566 15.2115 13.6771 15.194C13.6788 15.1926 13.6805 15.1911 13.6822 15.1897L17.9888 11.5801C17.9911 11.5782 17.9934 11.5762 17.9957 11.5743C17.9983 11.5722 17.9999 11.569 17.9999 11.5655C17.9999 11.5621 17.9984 11.5589 17.9955 11.5565C17.9933 11.5546 17.991 11.5528 17.9888 11.5509L13.6822 7.94133C13.6804 7.93985 13.6787 7.93835 13.6769 7.93685Z"/>
</svg>
