<svg width="24" height="24" viewBox="0 0 800 800" fill="none" xmlns="http://www.w3.org/2000/svg">
  <path stroke="currentColor" stroke-width="50" stroke-linecap="round" stroke-linejoin="round" d="M692.13 400H335.187M100 266.668H183.333M133.333 400H183.333M150 533.333H183.333M332.051 416.32L302.334 514.953C291.084 552.293 285.459 570.963 290.245 582.11C294.4 591.79 302.885 598.937 313.13 601.383C324.931 604.203 342.37 595.483 377.25 578.043L637.927 447.703C668.633 432.35 683.99 424.673 688.917 414.283C693.203 405.243 693.203 394.757 688.917 385.717C683.99 375.327 668.633 367.65 637.927 352.297L376.893 221.781C342.11 204.389 324.719 195.694 312.93 198.501C302.693 200.938 294.209 208.066 290.043 217.728C285.244 228.856 290.809 247.487 301.94 284.749L332.087 385.67C333.79 391.37 334.64 394.22 334.977 397.123C335.277 399.7 335.273 402.3 334.967 404.877C334.623 407.78 333.767 410.627 332.051 416.32Z"/>
</svg>
