<svg width="24" height="24" viewBox="0 0 24 24" fill="none" xmlns="http://www.w3.org/2000/svg">
  <path fill="currentColor" fill-rule="evenodd" clip-rule="evenodd" d="M11.25 2C11.25 1.58579 11.5858 1.25 12 1.25C17.937 1.25 22.75 6.06293 22.75 12C22.75 17.937 17.937 22.75 12 22.75C11.5858 22.75 11.25 22.4142 11.25 22C11.25 21.5858 11.5858 21.25 12 21.25C17.1086 21.25 21.25 17.1086 21.25 12C21.25 6.89137 17.1086 2.75 12 2.75C11.5858 2.75 11.25 2.41421 11.25 2Z" />
  <path fill="currentColor" fill-rule="evenodd" clip-rule="evenodd" d="M9.60751 1.51737C10.3776 1.34229 11.1785 1.25 12 1.25C12.4142 1.25 12.75 1.58579 12.75 2C12.75 2.41421 12.4142 2.75 12 2.75C11.2911 2.75 10.6018 2.8296 9.94004 2.98004C9.53614 3.07187 9.13427 2.81888 9.04244 2.41497C8.95061 2.01106 9.2036 1.60919 9.60751 1.51737ZM7.31372 3.13198C7.53443 3.4825 7.42919 3.94556 7.07867 4.16627C5.90349 4.90623 4.90623 5.90349 4.16627 7.07867C3.94556 7.42919 3.4825 7.53443 3.13198 7.31372C2.78146 7.09302 2.67623 6.62995 2.89693 6.27943C3.75645 4.91436 4.91436 3.75645 6.27943 2.89693C6.62995 2.67623 7.09302 2.78146 7.31372 3.13198ZM2.41497 9.04244C2.81888 9.13427 3.07187 9.53614 2.98004 9.94005C2.8296 10.6018 2.75 11.2911 2.75 12C2.75 12.7089 2.8296 13.3982 2.98004 14.06C3.07187 14.4639 2.81888 14.8657 2.41498 14.9576C2.01107 15.0494 1.6092 14.7964 1.51737 14.3925C1.34229 13.6224 1.25 12.8215 1.25 12C1.25 11.1785 1.34229 10.3776 1.51737 9.60751C1.60919 9.20361 2.01106 8.95061 2.41497 9.04244ZM3.13199 16.6863C3.48251 16.4656 3.94557 16.5708 4.16628 16.9213C4.90624 18.0965 5.9035 19.0938 7.07868 19.8337C7.4292 20.0544 7.53443 20.5175 7.31373 20.868C7.09302 21.2185 6.62996 21.3238 6.27944 21.1031C4.91437 20.2435 3.75646 19.0856 2.89694 17.7206C2.67624 17.37 2.78147 16.907 3.13199 16.6863ZM9.04244 21.585C9.13427 21.1811 9.53614 20.9281 9.94005 21.02C10.6018 21.1704 11.2911 21.25 12 21.25C12.4142 21.25 12.75 21.5858 12.75 22C12.75 22.4142 12.4142 22.75 12 22.75C11.1785 22.75 10.3776 22.6577 9.60751 22.4826C9.20361 22.3908 8.95062 21.9889 9.04244 21.585Z" />
  <path fill="currentColor" fill-rule="evenodd" clip-rule="evenodd" d="M9.95947 8.80497C9.84615 8.87584 9.75 9.01467 9.75 9.21315V14.7868C9.75 14.9853 9.84616 15.1241 9.95948 15.195C10.0691 15.2636 10.1919 15.271 10.3122 15.2L15.0323 12.4132C15.0324 12.4132 15.0324 12.4132 15.0324 12.4132C15.165 12.3348 15.25 12.1852 15.25 12C15.25 11.8148 15.165 11.6652 15.0324 11.5868C15.0324 11.5868 15.0324 11.5868 15.0323 11.5868L10.3122 8.80002C10.1919 8.72897 10.0691 8.7364 9.95947 8.80497ZM8.25 9.21315C8.25 7.79063 9.74623 6.72395 11.0748 7.50834L15.795 10.2952L15.7951 10.2952C17.0683 11.047 17.0683 12.9529 15.7951 13.7048L15.795 13.7048L11.0748 16.4916C11.0748 16.4916 11.0748 16.4916 11.0748 16.4916C9.74619 17.2761 8.25 16.2093 8.25 14.7868V9.21315Z" />
</svg>
