<svg width="24" height="24" viewBox="0 0 800 800" fill="none" xmlns="http://www.w3.org/2000/svg">
  <path stroke="currentColor" stroke-width="50" stroke-linecap="round" stroke-linejoin="round" d="M375.637 147.038C383.353 129.726 387.213 121.069 392.587 118.404C397.253 116.088 402.733 116.088 407.4 118.404C412.773 121.069 416.633 129.726 424.35 147.038L485.817 284.936C488.1 290.054 489.24 292.613 491.007 294.573C492.567 296.307 494.477 297.694 496.607 298.643C499.017 299.716 501.803 300.01 507.377 300.598L657.52 316.445C676.37 318.435 685.793 319.429 689.99 323.716C693.633 327.439 695.327 332.652 694.567 337.807C693.693 343.74 686.653 350.083 672.573 362.773L560.417 463.847C556.257 467.597 554.173 469.473 552.857 471.757C551.69 473.78 550.96 476.023 550.717 478.343C550.44 480.967 551.02 483.707 552.183 489.19L583.51 636.88C587.443 655.423 589.41 664.693 586.63 670.007C584.213 674.627 579.78 677.847 574.643 678.717C568.73 679.717 560.52 674.983 544.1 665.513L413.317 590.08C408.463 587.28 406.037 585.883 403.457 585.333C401.173 584.85 398.813 584.85 396.53 585.333C393.95 585.883 391.523 587.28 386.67 590.08L255.887 665.513C239.468 674.983 231.258 679.717 225.345 678.717C220.208 677.847 215.773 674.627 213.358 670.007C210.579 664.693 212.545 655.423 216.478 636.88L247.803 489.19C248.966 483.707 249.547 480.967 249.271 478.343C249.027 476.023 248.298 473.78 247.131 471.757C245.813 469.473 243.732 467.597 239.569 463.847L127.415 362.773C113.335 350.083 106.295 343.74 105.419 337.807C104.659 332.652 106.353 327.439 109.998 323.716C114.194 319.429 123.619 318.435 142.469 316.445L292.612 300.598C298.184 300.01 300.97 299.716 303.38 298.643C305.511 297.694 307.42 296.307 308.982 294.573C310.747 292.613 311.888 290.054 314.169 284.936L375.637 147.038Z"/>
</svg>
