<svg width="24" height="24" viewBox="0 0 800 800" fill="none" xmlns="http://www.w3.org/2000/svg">
  <path stroke="currentColor" stroke-width="50" stroke-linecap="round" stroke-linejoin="round" d="M350 339.167C335.853 325.163 317.27 316.667 296.918 316.667C252.596 316.667 216.667 356.96 216.667 406.667C216.667 456.373 252.596 496.667 296.918 496.667C317.27 496.667 335.853 488.17 350 474.167M583.333 339.167C569.187 325.163 550.603 316.667 530.25 316.667C485.93 316.667 450 356.96 450 406.667C450 456.373 485.93 496.667 530.25 496.667C550.603 496.667 569.187 488.17 583.333 474.167M206.667 633.333H593.333C630.67 633.333 649.34 633.333 663.6 626.067C676.143 619.677 686.343 609.477 692.733 596.933C700 582.673 700 564.003 700 526.667V273.333C700 235.997 700 217.328 692.733 203.067C686.343 190.523 676.143 180.324 663.6 173.933C649.34 166.667 630.67 166.667 593.333 166.667H206.667C169.33 166.667 150.661 166.667 136.401 173.933C123.856 180.324 113.658 190.523 107.266 203.067C100 217.328 100 235.996 100 273.333V526.667C100 564.003 100 582.673 107.266 596.933C113.658 609.477 123.856 619.677 136.401 626.067C150.661 633.333 169.33 633.333 206.667 633.333Z"/>
</svg>
