<svg width="24" height="24" viewBox="0 0 24 24" fill="none" xmlns="http://www.w3.org/2000/svg">
  <path fill="currentColor" fill-rule="evenodd" clip-rule="evenodd" d="M7.99998 2C8.55226 2 8.99998 2.44772 8.99998 3V4H14C14.5523 4 15 4.44772 15 5C15 5.55228 14.5523 6 14 6H12.3282C11.816 8.42694 10.875 10.6671 9.56475 12.6367C9.85006 12.8123 10.1336 12.9638 10.4098 13.0878C10.9136 13.3142 11.1385 13.906 10.9121 14.4098C10.6858 14.9136 10.0939 15.1385 9.59015 14.9122C9.17742 14.7267 8.76571 14.5011 8.36335 14.244C6.75632 16.1638 4.75737 17.7464 2.44501 18.8955C1.95043 19.1413 1.35025 18.9396 1.10446 18.445C0.858678 17.9505 1.06036 17.3503 1.55494 17.1045C3.5942 16.0911 5.35475 14.7038 6.77479 13.0255C5.63586 11.9944 4.63946 10.7161 4.07882 9.3892C3.86387 8.88046 4.10204 8.2938 4.61078 8.07885C5.11951 7.8639 5.70618 8.10206 5.92113 8.6108C6.32621 9.56953 7.0733 10.5659 7.976 11.413C9.0302 9.7987 9.81321 7.97691 10.2791 6H1.99998C1.44769 6 0.999977 5.55228 0.999977 5C0.999977 4.44772 1.44769 4 1.99998 4H6.99998V3C6.99998 2.44772 7.44769 2 7.99998 2ZM16.5 11.8177L14.4997 16H18.5002L16.5 11.8177ZM19.4567 18L21.0978 21.4314C21.3361 21.9297 21.9332 22.1404 22.4314 21.9021C22.9297 21.6639 23.1404 21.0668 22.9021 20.5686L20.9891 16.5686L18.1082 10.5449C18.0064 10.3319 17.9027 10.1151 17.8016 9.94517C17.7051 9.78287 17.5107 9.48122 17.1522 9.3081C16.7402 9.10914 16.2598 9.10914 15.8477 9.30809C15.4892 9.48121 15.2949 9.78287 15.1983 9.94517C15.0973 10.1151 14.9936 10.3319 14.8917 10.5449L12.0108 16.5685L10.0978 20.5686C9.85956 21.0668 10.0703 21.6639 10.5685 21.9021C11.0668 22.1404 11.6638 21.9297 11.9021 21.4314L13.5432 18H19.4567Z"/>
</svg>
