<svg width="24px" height="24px" version="1.1" viewBox="0 0 36 36" xmlns="http://www.w3.org/2000/svg">
  <use class="svg-shadow" href="#volume-normal-svg-icon"></use>
  <path id="volume-normal-svg-icon" fill="currentColor" d="M8,21 L12,21 L17,26 L17,10 L12,15 L8,15 L8,21 Z M19,14 L19,22 C20.48,21.32 21.5,19.77 21.5,18 C21.5,16.26 20.48,14.74 19,14 ZM19,11.29 C21.89,12.15 24,14.83 24,18 C24,21.17 21.89,23.85 19,24.71 L19,26.77 C23.01,25.86 26,22.28 26,18 C26,13.72 23.01,10.14 19,9.23 L19,11.29 Z" />
</svg>
